HIERARCHY
ROOT Hips
{
     OFFSET 1.88212 96.90440 -13.34250
     CHANNELS 6 Xposition Yposition Zposition Zrotation Xrotation Yrotation
     JOINT Spine
     {
          OFFSET 0.00000 11.89050 0.00000
          CHANNELS 3 Zrotation Xrotation Yrotation
          JOINT Spine1
          {
               OFFSET -0.00000 25.65740 0.12766
               CHANNELS 3 Zrotation Xrotation Yrotation
               JOINT HEad
               {
                    OFFSET 0.00000 8.73416 0.01134
                    CHANNELS 3 Zrotation Xrotation Yrotation
                    End Site
                    {
                         OFFSET -0.29000 12.77420 2.51395
                    }
               }
               JOINT LeftShoulder1
               {
                    OFFSET 8.99000 -0.36225 -0.22000
                    CHANNELS 3 Zrotation Xrotation Yrotation
                    JOINT LeftArm
                    {
                         OFFSET 10.28270 -0.00338 0.32212
                         CHANNELS 3 Zrotation Xrotation Yrotation
                         JOINT LeftForeArm
                         {
                              OFFSET 32.76690 0.09914 -1.42434
                              CHANNELS 3 Zrotation Xrotation Yrotation
                              JOINT LeftHand
                              {
                                   OFFSET 27.56430 0.08536 1.02216
                                   CHANNELS 3 Zrotation Xrotation Yrotation
                                   End Site
                                   {
                                        OFFSET 16.74430 -0.60000 1.50291
                                   }
                              }
                         }
                    }
               }
               JOINT RightShoulder
               {
                    OFFSET -8.99000 -0.36225 -0.22000
                    CHANNELS 3 Zrotation Xrotation Yrotation
                    JOINT RightArm
                    {
                         OFFSET -10.28270 -0.00338 0.32212
                         CHANNELS 3 Zrotation Xrotation Yrotation
                         JOINT RightForeArm
                         {
                              OFFSET -32.89710 0.09914 -1.42434
                              CHANNELS 3 Zrotation Xrotation Yrotation
                              JOINT RightHand
                              {
                                   OFFSET -27.49210 0.08536 1.02216
                                   CHANNELS 3 Zrotation Xrotation Yrotation
                                   End Site
                                   {
                                        OFFSET -16.63120 -0.60000 1.50291
                                   }
                              }
                         }
                    }
               }
          }
     }
     JOINT LeftUpLeg
     {
          OFFSET 8.94580 -8.66707 0.10165
          CHANNELS 3 Zrotation Xrotation Yrotation
          JOINT LeftLeg
          {
               OFFSET 0.00000 -44.42270 1.37270
               CHANNELS 3 Zrotation Xrotation Yrotation
               JOINT LeftFoot
               {
                    OFFSET -0.25355 -42.09240 -1.46059
                    CHANNELS 3 Zrotation Xrotation Yrotation
                    JOINT LeftToes
                    {
                         OFFSET -0.04000 -4.41509 8.49910
                         CHANNELS 3 Zrotation Xrotation Yrotation
                         End Site
                         {
                              OFFSET 0.08000 -0.04745 9.77979
                         }
                    }
               }
          }
     }
     JOINT RightUpLeg
     {
          OFFSET -8.94580 -8.66707 0.10165
          CHANNELS 3 Zrotation Xrotation Yrotation
          JOINT RightLeg
          {
               OFFSET 0.00000 -44.42270 1.37270
               CHANNELS 3 Zrotation Xrotation Yrotation
               JOINT RightFoot
               {
                    OFFSET 0.25355 -42.09240 -1.46059
                    CHANNELS 3 Zrotation Xrotation Yrotation
                    JOINT RightToes
                    {
                         OFFSET 0.04000 -4.41509 8.49910
                         CHANNELS 3 Zrotation Xrotation Yrotation
                         End Site
                         {
                              OFFSET -0.08000 -0.13745 9.77979
                         }
                    }
               }
          }
     }
}
MOTION
Frames: 13
Frame Time: 0.01667
-57.20686 90.52951 -102.38898 0.15298 -12.26101 -1.53690 -2.76799 19.91430 -11.66737 -0.00593 0.01961 0.01288 -3.77894 7.80022 4.52024 -2.59845 12.83611 -2.37626 -121.60818 -54.57739 -101.96561 335.69797 53.95875 -84.52838 18.66481 5.45602 -8.98329 17.24944 12.86113 -5.95255 84.19150 4.94081 73.32023 10.66350 31.08279 105.14862 22.12606 14.97968 -1.15900 21.56995 -3.85012 -5.67650 -32.56229 3.71428 47.94984 35.46133 0.00607 -0.00943 -21.91979 -18.46531 -56.58279 -14.10556 -4.46475 12.87815 33.70288 24.32704 -50.78799 -30.00321 -0.00123 0.00019 8.50798 -51.75351 20.24351 
-57.08631 90.42338 -102.19807 -0.07945 -12.33484 -1.52818 -2.59181 19.75515 -12.71850 -0.00523 0.01794 0.01277 -3.04107 7.83617 5.88471 -3.04425 12.81691 -0.65166 -115.72403 -53.50949 -97.49306 337.71561 50.96241 -85.60895 18.86793 5.77137 -9.26104 17.09774 13.26410 -4.33323 84.05537 3.69390 72.90353 10.53474 31.32623 105.40369 21.93233 14.77267 -0.64023 21.87948 -3.42436 -6.28241 -32.69195 2.88523 47.06992 36.00301 0.00266 -0.00598 -21.96918 -18.04802 -55.53574 -14.57906 -4.60745 10.68289 34.24493 25.88306 -49.66841 -30.00249 -0.00087 0.00040 8.28470 -53.01307 20.09518 
-56.91417 90.30914 -101.97498 -0.29521 -12.42231 -1.62574 -2.49443 19.73079 -13.41466 -0.00466 0.01628 0.01219 -2.25053 7.77617 6.98682 -3.39933 12.66581 0.79531 -111.05453 -52.33263 -93.95937 339.22922 48.44353 -86.37174 18.69566 5.81556 -9.33542 17.01155 13.49439 -2.90794 83.89322 2.40963 72.50276 10.50979 31.53041 105.69412 21.20350 14.22712 0.46554 22.10936 -3.10771 -6.84796 -32.71901 2.32158 46.62551 36.37336 0.00044 -0.00378 -22.02874 -17.82796 -54.77440 -15.01980 -4.68770 8.70387 34.83756 27.16694 -48.67245 -30.00161 -0.00046 0.00036 7.79572 -54.23878 19.96402 
-56.72955 90.19359 -101.74158 -0.48894 -12.51953 -1.79906 -2.46782 19.81536 -13.80006 -0.00431 0.01478 0.01132 -1.43242 7.62790 7.85108 -3.67893 12.42353 1.98881 -107.28051 -51.07125 -91.13658 340.44321 46.27121 -86.92590 18.76104 6.07393 -9.45253 16.97820 13.58696 -1.67564 83.73024 1.14584 72.11437 10.54673 31.70460 106.01349 20.98321 13.95749 0.92537 22.28023 -2.90220 -7.37495 -32.66898 1.99379 46.57914 36.60686 -0.00089 -0.00243 -22.11744 -17.78257 -54.28829 -15.45250 -4.70130 6.93431 35.43136 28.22230 -47.77882 -30.00093 -0.00012 0.00024 7.16663 -55.40710 19.90002 
-56.55500 90.08301 -101.51108 -0.65923 -12.62171 -2.02220 -2.50709 19.98647 -13.91623 -0.00399 0.01348 0.01021 -0.60817 7.39738 8.50445 -3.89047 12.12102 2.94903 -104.19394 -49.76008 -88.86915 341.46277 44.36766 -87.33659 18.60461 6.18351 -9.45687 16.98807 13.56808 -0.63972 83.57882 -0.03719 71.73862 10.61192 31.84186 106.36741 20.49163 13.49607 1.67446 22.40689 -2.80421 -7.86529 -32.56308 1.87657 46.88235 36.73186 -0.00155 -0.00161 -22.25528 -17.88454 -54.05125 -15.88710 -4.64908 5.36660 35.99176 29.07756 -46.97171 -30.00045 0.00010 0.00015 6.51006 -56.49847 19.95809 
-56.39907 89.98181 -101.28880 -0.80629 -12.72502 -2.27404 -2.60833 20.22491 -13.80163 -0.00380 0.01230 0.00900 0.20439 7.09178 8.97351 -4.03542 11.77942 3.69754 -101.65662 -48.44471 -87.04230 342.33554 42.68803 -87.64854 18.60008 6.41900 -9.49715 17.04592 13.45538 0.20180 83.42960 -1.08851 71.37521 10.66710 31.93625 106.74625 20.34462 13.22622 1.98938 22.49714 -2.80487 -8.32257 -32.42256 1.94738 47.48047 36.77412 -0.00176 -0.00114 -22.45312 -18.11586 -54.02590 -16.32188 -4.53556 3.99340 36.49890 29.75208 -46.24141 -30.00015 0.00024 0.00008 5.90972 -57.48998 20.16037 
-56.26142 89.89191 -101.07433 -0.93100 -12.82725 -2.53841 -2.76691 20.51369 -13.49189 -0.00361 0.01124 0.00772 0.98963 6.72081 9.28354 -4.11434 11.41385 4.25073 -99.57901 -47.17521 -85.56862 343.08502 41.22149 -87.88976 18.48015 6.56683 -9.47715 17.15685 13.26239 0.85039 83.26636 -1.97236 71.02750 10.68909 31.97541 107.14636 20.05664 12.87076 2.43755 22.55455 -2.89239 -8.75263 -32.26902 2.18519 48.31945 36.75659 -0.00170 -0.00087 -22.71052 -18.46717 -54.17713 -16.74834 -4.36767 2.80842 36.94444 30.26216 -45.58176 -29.99397 0.00030 0.00003 5.40399 -58.35910 20.48885 
-56.13891 89.81364 -100.86453 -1.03451 -12.92729 -2.80376 -2.97659 20.83757 -13.02008 -0.00337 0.01036 0.00641 1.73378 6.29645 9.45811 -4.12750 11.03744 4.62326 -97.89830 -45.99663 -84.37843 343.71973 39.96422 -88.07534 18.46804 6.76844 -9.49239 17.31961 13.00249 1.31800 83.08112 -2.67646 70.70095 10.66072 31.96375 107.55101 19.96580 12.64874 2.59870 22.58166 -3.05465 -9.16286 -32.12218 2.56969 49.35141 36.69794 -0.00153 -0.00073 -23.02074 -18.93144 -54.48159 -17.15578 -4.15390 1.80613 37.32767 30.62422 -44.98850 -29.96570 0.00036 0.00001 4.98273 -59.09158 20.89756 
-56.02938 89.74860 -100.65622 -1.11815 -13.02429 -3.06265 -3.22936 21.18255 -12.41715 -0.00303 0.00962 0.00510 2.42447 5.83209 9.51936 -4.07624 10.66136 4.82769 -96.55729 -44.93935 -83.41099 344.24777 38.90691 -88.21146 18.39413 6.90249 -9.49114 17.52486 12.68865 1.61991 82.87551 -3.20845 70.40322 10.58173 31.91135 107.94522 19.75510 12.39044 2.83130 22.58186 -3.27965 -9.56067 -31.99701 3.07856 50.53603 36.61264 -0.00130 -0.00067 -23.38054 -19.49260 -54.92419 -17.53392 -3.90346 0.98110 37.65255 30.85305 -44.45868 -29.90658 0.00040 -0.00001 4.61728 -59.68915 21.33468 
-55.93172 89.69747 -100.44574 -1.18364 -13.11712 -3.31116 -3.51600 21.53607 -11.71183 -0.00264 0.00904 0.00379 3.05105 5.34167 9.48801 -3.96664 10.29473 4.87815 -95.49267 -44.01641 -82.61299 344.68149 38.02318 -88.30296 18.37902 7.05536 -9.53126 17.76368 12.33318 1.77274 82.65337 -3.58582 70.14062 10.45650 31.83552 108.31021 19.62160 12.22253 2.89763 22.56004 -3.55599 -9.95197 -31.90292 3.68907 51.83755 36.51009 -0.00104 -0.00065 -23.79266 -20.11924 -55.48326 -17.87443 -3.62572 0.32700 37.92389 30.96324 -43.98985 -29.81146 0.00042 -0.00004 4.27517 -60.17049 21.75750 
-55.84525 89.65984 -100.22952 -1.23330 -13.20469 -3.54801 -3.82654 21.88748 -10.93100 -0.00220 0.00855 0.00247 3.60452 4.83934 9.38364 -3.80730 9.94452 4.79015 -94.64277 -43.22815 -81.94125 345.03955 37.28151 -88.35715 18.31145 7.16946 -9.57680 18.02662 11.94718 1.79030 82.41908 -3.82813 69.91751 10.29552 31.74707 108.63705 19.38046 12.04845 3.02573 22.52236 -3.87254 -10.34170 -31.84523 4.37936 53.22115 36.39544 -0.00077 -0.00062 -24.25869 -20.77153 -56.11987 -18.17175 -3.32923 -0.16420 38.14587 30.97002 -43.57996 -29.67705 0.00042 -0.00008 3.93570 -60.56420 22.14355 
-55.76871 89.63409 -100.00424 -1.27019 -13.28656 -3.77372 -4.14989 22.22856 -10.10021 -0.00170 0.00813 0.00114 4.07738 4.33928 9.22470 -3.60467 9.61653 4.58088 -93.96344 -42.57280 -81.36759 345.33777 36.65648 -88.38379 18.25977 7.29651 -9.65408 18.30078 11.54083 1.68764 82.18231 -3.95343 69.73587 10.10680 31.65237 108.92258 19.16759 11.94347 3.07583 22.47573 -4.21840 -10.73599 -31.82808 5.12849 54.65332 36.27142 -0.00053 -0.00058 -24.77072 -21.41562 -56.78122 -18.42356 -3.02082 -0.50231 38.32250 30.88919 -43.22732 -29.50151 0.00038 -0.00012 3.60167 -60.89724 22.49748 
-55.70018 89.61794 -99.76671 -1.29824 -13.36312 -3.99033 -4.47396 22.55351 -9.24368 -0.00115 0.00775 -0.00021 4.46387 3.85506 9.02884 -3.36412 9.31509 4.26756 -93.43246 -42.05437 -80.87853 345.58255 36.14027 -88.39040 18.16380 7.39785 -9.73036 18.56637 11.12282 1.47876 81.96106 -3.97470 69.59663 9.89937 31.55095 109.17012 18.89612 11.84506 3.18059 22.42725 -4.58306 -11.14318 -31.85603 5.91645 56.10640 36.13962 -0.00031 -0.00052 -25.30997 -22.03193 -57.41483 -18.63025 -2.70545 -0.69779 38.45845 30.73639 -42.93071 -29.28456 0.00030 -0.00018 3.29148 -61.18970 22.84047 
